<svg version="1.1" viewBox="0.0 0.0 600.0 371.0" fill="none" stroke="none" stroke-linecap="square" stroke-miterlimit="10" width="600" height="371" xmlns:xlink="http://www.w3.org/1999/xlink" xmlns="http://www.w3.org/2000/svg"><path fill="#ffffff" fill-opacity="0.0" d="M0 0L600.0 0L600.0 371.0L0 371.0L0 0Z" fill-rule="nonzero"/><path stroke="#333333" stroke-width="1.0" stroke-linecap="butt" d="M91.5 300.5L581.5 300.5" fill-rule="nonzero"/><path stroke="#cccccc" stroke-width="1.0" stroke-linecap="butt" d="M91.5 245.5L581.5 245.5" fill-rule="nonzero"/><path stroke="#cccccc" stroke-width="1.0" stroke-linecap="butt" d="M91.5 190.5L581.5 190.5" fill-rule="nonzero"/><path stroke="#cccccc" stroke-width="1.0" stroke-linecap="butt" d="M91.5 135.5L581.5 135.5" fill-rule="nonzero"/><path stroke="#cccccc" stroke-width="1.0" stroke-linecap="butt" d="M91.5 80.5L581.5 80.5" fill-rule="nonzero"/><path stroke="#cccccc" stroke-width="1.0" stroke-linecap="butt" d="M91.5 25.5L581.5 25.5" fill-rule="nonzero"/><clipPath id="id_0"><path d="M91.55 25.55L581.45 25.55L581.45 300.45L91.55 300.45L91.55 25.55Z" clip-rule="nonzero"/></clipPath><path fill="#cc0000" fill-opacity="0.3019608" clip-path="url(#id_0)" d="M91.55 251.40784L136.08636 161.79044L180.62273 207.7977L225.15909 124.2501L269.69547 165.771L314.2318 141.22792L358.7682 112.57234L403.30453 95.46257L447.8409 76.1316L492.37726 58.09816L536.91364 77.89096L581.45 49.7412L581.45 300.45L536.91364 300.45L492.37726 300.45L447.8409 300.45L403.30453 300.45L358.7682 300.45L314.2318 300.45L269.69547 300.45L225.15909 300.45L180.62273 300.45L136.08636 300.45L91.55 300.45Z" fill-rule="nonzero"/><path stroke="#cc0000" stroke-width="2.0" stroke-linecap="butt" clip-path="url(#id_0)" d="M91.55 251.40784L136.08636 161.79044L180.62273 207.7977L225.15909 124.2501L269.69547 165.771L314.2318 141.22792L358.7682 112.57234L403.30453 95.46257L447.8409 76.1316L492.37726 58.09816L536.91364 77.89096L581.45 49.7412" fill-rule="nonzero"/><path fill="#cc0000" clip-path="url(#id_0)" d="M91.55 246.90784L95.82976 250.01726L94.19503 255.04842L88.90497 255.04842L87.27025 250.01726Z" fill-rule="nonzero"/><path fill="#cc0000" clip-path="url(#id_0)" d="M136.08636 157.29044L140.36612 160.39986L138.7314 165.43102L133.44133 165.43102L131.80661 160.39986Z" fill-rule="nonzero"/><path fill="#cc0000" clip-path="url(#id_0)" d="M180.62273 203.2977L184.90248 206.40714L183.26776 211.43828L177.97769 211.43828L176.34297 206.40714Z" fill-rule="nonzero"/><path fill="#cc0000" clip-path="url(#id_0)" d="M225.15909 119.7501L229.43884 122.85952L227.80412 127.89067L222.51405 127.89067L220.87933 122.85952Z" fill-rule="nonzero"/><path fill="#cc0000" clip-path="url(#id_0)" d="M269.69547 161.271L273.97522 164.38042L272.34048 169.41158L267.0504 169.41158L265.4157 164.38042Z" fill-rule="nonzero"/><path fill="#cc0000" clip-path="url(#id_0)" d="M314.2318 136.72792L318.51157 139.83734L316.87686 144.8685L311.5868 144.8685L309.95206 139.83734Z" fill-rule="nonzero"/><path fill="#cc0000" clip-path="url(#id_0)" d="M358.7682 108.07234L363.04794 111.18177L361.4132 116.21292L356.12314 116.21292L354.48843 111.18177Z" fill-rule="nonzero"/><path fill="#cc0000" clip-path="url(#id_0)" d="M403.30453 90.96257L407.5843 94.07199L405.9496 99.10314L400.65952 99.10314L399.02478 94.07199Z" fill-rule="nonzero"/><path fill="#cc0000" clip-path="url(#id_0)" d="M447.8409 71.6316L452.12067 74.74102L450.48593 79.77218L445.19586 79.77218L443.56116 74.74102Z" fill-rule="nonzero"/><path fill="#cc0000" clip-path="url(#id_0)" d="M492.37726 53.59816L496.657 56.707584L495.0223 61.738735L489.73224 61.738735L488.0975 56.707584Z" fill-rule="nonzero"/><path fill="#cc0000" clip-path="url(#id_0)" d="M536.91364 73.39096L541.1934 76.50038L539.55865 81.53154L534.2686 81.53154L532.6339 76.50038Z" fill-rule="nonzero"/><path fill="#cc0000" clip-path="url(#id_0)" d="M581.45 45.2412L585.72974 48.350624L584.09503 53.381775L578.805 53.381775L577.1702 48.350624Z" fill-rule="nonzero"/><path fill="#000000" d="M324.42188 349.45L324.42188 340.85626L327.39062 340.85626Q328.39062 340.85626 328.92188 340.98126Q329.65625 341.15314 330.17188 341.59064Q330.85938 342.16876 331.1875 343.075Q331.53125 343.96564 331.53125 345.10626Q331.53125 346.09064 331.29688 346.84064Q331.07812 347.59064 330.71875 348.09064Q330.35938 348.59064 329.92188 348.8719Q329.5 349.15314 328.90625 349.3094Q328.3125 349.45 327.53125 349.45L324.42188 349.45ZM325.5625 348.4344L327.39062 348.4344Q328.25 348.4344 328.73438 348.27814Q329.21875 348.1219 329.5 347.825Q329.90625 347.4344 330.125 346.7469Q330.35938 346.0594 330.35938 345.09064Q330.35938 343.7469 329.90625 343.02814Q329.46875 342.29376 328.84375 342.04376Q328.375 341.8719 327.375 341.8719L325.5625 341.8719L325.5625 348.4344ZM337.35938 348.6844Q336.76562 349.1844 336.21875 349.3875Q335.6875 349.59064 335.0625 349.59064Q334.03125 349.59064 333.48438 349.09064Q332.9375 348.59064 332.9375 347.8094Q332.9375 347.35626 333.14062 346.98126Q333.34375 346.59064 333.6875 346.3719Q334.03125 346.1375 334.45312 346.02814Q334.75 345.9344 335.39062 345.85626Q336.65625 345.71564 337.26562 345.4969Q337.26562 345.27814 337.26562 345.23126Q337.26562 344.575 336.96875 344.3094Q336.5625 343.96564 335.76562 343.96564Q335.03125 343.96564 334.67188 344.23126Q334.3125 344.48126 334.14062 345.1375L333.10938 344.9969Q333.25 344.34064 333.57812 343.9344Q333.90625 343.52814 334.51562 343.3094Q335.125 343.09064 335.92188 343.09064Q336.71875 343.09064 337.21875 343.27814Q337.71875 343.46564 337.95312 343.7469Q338.1875 344.02814 338.28125 344.46564Q338.32812 344.73126 338.32812 345.4344L338.32812 346.84064Q338.32812 348.3094 338.39062 348.7Q338.46875 349.09064 338.67188 349.45L337.5625 349.45Q337.40625 349.1219 337.35938 348.6844ZM337.26562 346.325Q336.6875 346.5594 335.54688 346.73126Q334.89062 346.825 334.625 346.95Q334.35938 347.0594 334.20312 347.27814Q334.0625 347.4969 334.0625 347.77814Q334.0625 348.2 334.375 348.48126Q334.70312 348.7625 335.3125 348.7625Q335.92188 348.7625 336.39062 348.4969Q336.875 348.23126 337.09375 347.7625Q337.26562 347.40314 337.26562 346.71564L337.26562 346.325ZM342.59375 348.5125L342.75 349.4344Q342.29688 349.52814 341.95312 349.52814Q341.375 349.52814 341.0625 349.35626Q340.75 349.16876 340.60938 348.8719Q340.48438 348.575 340.48438 347.6219L340.48438 344.04376L339.71875 344.04376L339.71875 343.23126L340.48438 343.23126L340.48438 341.6844L341.53125 341.0594L341.53125 343.23126L342.59375 343.23126L342.59375 344.04376L341.53125 344.04376L341.53125 347.6844Q341.53125 348.1375 341.57812 348.2625Q341.64062 348.3875 341.76562 348.46564Q341.89062 348.54376 342.125 348.54376Q342.3125 348.54376 342.59375 348.5125ZM347.35938 348.6844Q346.76562 349.1844 346.21875 349.3875Q345.6875 349.59064 345.0625 349.59064Q344.03125 349.59064 343.48438 349.09064Q342.9375 348.59064 342.9375 347.8094Q342.9375 347.35626 343.14062 346.98126Q343.34375 346.59064 343.6875 346.3719Q344.03125 346.1375 344.45312 346.02814Q344.75 345.9344 345.39062 345.85626Q346.65625 345.71564 347.26562 345.4969Q347.26562 345.27814 347.26562 345.23126Q347.26562 344.575 346.96875 344.3094Q346.5625 343.96564 345.76562 343.96564Q345.03125 343.96564 344.67188 344.23126Q344.3125 344.48126 344.14062 345.1375L343.10938 344.9969Q343.25 344.34064 343.57812 343.9344Q343.90625 343.52814 344.51562 343.3094Q345.125 343.09064 345.92188 343.09064Q346.71875 343.09064 347.21875 343.27814Q347.71875 343.46564 347.95312 343.7469Q348.1875 344.02814 348.28125 344.46564Q348.32812 344.73126 348.32812 345.4344L348.32812 346.84064Q348.32812 348.3094 348.39062 348.7Q348.46875 349.09064 348.67188 349.45L347.5625 349.45Q347.40625 349.1219 347.35938 348.6844ZM347.26562 346.325Q346.6875 346.5594 345.54688 346.73126Q344.89062 346.825 344.625 346.95Q344.35938 347.0594 344.20312 347.27814Q344.0625 347.4969 344.0625 347.77814Q344.0625 348.2 344.375 348.48126Q344.70312 348.7625 345.3125 348.7625Q345.92188 348.7625 346.39062 348.4969Q346.875 348.23126 347.09375 347.7625Q347.26562 347.40314 347.26562 346.71564L347.26562 346.325Z" fill-rule="nonzero"/><path fill="#000000" d="M29.550013 180.125L20.956263 183.45312L20.956263 182.21875L27.206263 179.98438Q27.956263 179.71875 28.612513 179.53125Q27.909388 179.32812 27.206263 179.0625L20.956263 176.75L20.956263 175.59375L29.550013 178.95312L29.550013 180.125ZM28.784388 171.64062Q29.284388 172.23438 29.487513 172.78125Q29.690638 173.3125 29.690638 173.9375Q29.690638 174.96875 29.190638 175.51562Q28.690638 176.0625 27.909388 176.0625Q27.456263 176.0625 27.081263 175.85938Q26.690638 175.65625 26.471888 175.3125Q26.237513 174.96875 26.128138 174.54688Q26.034388 174.25 25.956263 173.60938Q25.815638 172.34375 25.596888 171.73438Q25.378138 171.73438 25.331263 171.73438Q24.675013 171.73438 24.409388 172.03125Q24.065638 172.4375 24.065638 173.23438Q24.065638 173.96875 24.331263 174.32812Q24.581263 174.6875 25.237513 174.85938L25.096888 175.89062Q24.440638 175.75 24.034388 175.42188Q23.628138 175.09375 23.409388 174.48438Q23.190638 173.875 23.190638 173.07812Q23.190638 172.28125 23.378138 171.78125Q23.565638 171.28125 23.846888 171.04688Q24.128138 170.8125 24.565638 170.71875Q24.831263 170.67188 25.534388 170.67188L26.940638 170.67188Q28.409388 170.67188 28.800013 170.60938Q29.190638 170.53125 29.550013 170.32812L29.550013 171.4375Q29.221888 171.59375 28.784388 171.64062ZM26.425013 171.73438Q26.659388 172.3125 26.831263 173.45312Q26.925013 174.10938 27.050013 174.375Q27.159388 174.64062 27.378138 174.79688Q27.596888 174.9375 27.878138 174.9375Q28.300013 174.9375 28.581263 174.625Q28.862513 174.29688 28.862513 173.6875Q28.862513 173.07812 28.596888 172.60938Q28.331263 172.125 27.862513 171.90625Q27.503138 171.73438 26.815638 171.73438L26.425013 171.73438ZM29.550013 168.73438L20.956263 168.73438L20.956263 167.67188L29.550013 167.67188L29.550013 168.73438ZM26.440638 166.09375Q24.706263 166.09375 23.878138 165.14062Q23.190638 164.34375 23.190638 163.1875Q23.190638 161.90625 24.034388 161.09375Q24.862513 160.26562 26.346888 160.26562Q27.550013 160.26562 28.237513 160.625Q28.925013 160.98438 29.315638 161.6875Q29.690638 162.375 29.690638 163.1875Q29.690638 164.48438 28.862513 165.29688Q28.018763 166.09375 26.440638 166.09375ZM26.440638 165.01562Q27.628138 165.01562 28.221888 164.5Q28.815638 163.96875 28.815638 163.1875Q28.815638 162.39062 28.221888 161.875Q27.628138 161.35938 26.409388 161.35938Q25.253138 161.35938 24.659388 161.89062Q24.065638 162.40625 24.065638 163.1875Q24.065638 163.96875 24.659388 164.5Q25.237513 165.01562 26.440638 165.01562ZM29.550013 158.71875L23.331263 158.71875L23.331263 157.76562L24.268763 157.76562Q23.612513 157.40625 23.409388 157.10938Q23.190638 156.79688 23.190638 156.42188Q23.190638 155.89062 23.518763 155.34375L24.503138 155.70312Q24.268763 156.09375 24.268763 156.46875Q24.268763 156.82812 24.487513 157.10938Q24.690638 157.375 25.065638 157.48438Q25.628138 157.67188 26.284388 157.67188L29.550013 157.67188L29.550013 158.71875Z" fill-rule="nonzero"/><path fill="#000000" d="M79.05 300.21564Q79.05 298.6844 79.3625 297.7625Q79.675 296.825 80.28438 296.325Q80.90938 295.825 81.84688 295.825Q82.53438 295.825 83.05 296.10626Q83.58125 296.3875 83.925 296.91876Q84.26875 297.4344 84.45625 298.1844Q84.64375 298.9344 84.64375 300.21564Q84.64375 301.73126 84.33125 302.65314Q84.03438 303.575 83.40938 304.09064Q82.8 304.59064 81.84688 304.59064Q80.6125 304.59064 79.89375 303.7Q79.05 302.6375 79.05 300.21564ZM80.12813 300.21564Q80.12813 302.325 80.62813 303.02814Q81.12813 303.73126 81.84688 303.73126Q82.58125 303.73126 83.06563 303.02814Q83.56563 302.325 83.56563 300.21564Q83.56563 298.09064 83.06563 297.40314Q82.58125 296.7 81.83125 296.7Q81.1125 296.7 80.675 297.3094Q80.12813 298.09064 80.12813 300.21564Z" fill-rule="nonzero"/><path fill="#000000" d="M63.596874 248.45438L63.596874 249.47L57.909374 249.47Q57.909374 249.095 58.034374 248.73563Q58.253124 248.1575 58.721874 247.595Q59.20625 247.0325 60.1125 246.29813Q61.51875 245.14188 62.003124 244.47Q62.503124 243.79813 62.503124 243.20438Q62.503124 242.57938 62.05 242.1575Q61.596874 241.72 60.878124 241.72Q60.1125 241.72 59.659374 242.17313Q59.20625 242.62625 59.190624 243.43875L58.1125 243.32938Q58.221874 242.11063 58.940624 241.48563Q59.675 240.845 60.909374 240.845Q62.14375 240.845 62.8625 241.5325Q63.58125 242.22 63.58125 243.23563Q63.58125 243.75125 63.3625 244.25125Q63.159374 244.73563 62.659374 245.29813Q62.175 245.845 61.05 246.79813Q60.096874 247.595 59.815624 247.89188Q59.55 248.17313 59.378124 248.45438L63.596874 248.45438ZM65.05 247.22L66.15938 247.12625Q66.28438 247.93875 66.72188 248.345Q67.175 248.75125 67.81563 248.75125Q68.56563 248.75125 69.09688 248.17313Q69.62813 247.595 69.62813 246.6575Q69.62813 245.75125 69.1125 245.23563Q68.6125 244.70438 67.78438 244.70438Q67.28438 244.70438 66.8625 244.93875Q66.45625 245.17313 66.22188 245.5325L65.2375 245.4075L66.06563 241.00125L70.34688 241.00125L70.34688 242.00125L66.90938 242.00125L66.45625 244.31375Q67.22188 243.76688 68.06563 243.76688Q69.19063 243.76688 69.95625 244.54813Q70.7375 245.32938 70.7375 246.56375Q70.7375 247.72 70.06563 248.57938Q69.2375 249.61063 67.81563 249.61063Q66.64375 249.61063 65.89375 248.95438Q65.15938 248.29813 65.05 247.22ZM72.05 245.23563Q72.05 243.70438 72.3625 242.7825Q72.675 241.845 73.28438 241.345Q73.90938 240.845 74.84688 240.845Q75.53438 240.845 76.05 241.12625Q76.58125 241.4075 76.925 241.93875Q77.26875 242.45438 77.45625 243.20438Q77.64375 243.95438 77.64375 245.23563Q77.64375 246.75125 77.33125 247.67313Q77.03438 248.595 76.40938 249.11063Q75.8 249.61063 74.84688 249.61063Q73.6125 249.61063 72.89375 248.72Q72.05 247.6575 72.05 245.23563ZM73.12813 245.23563Q73.12813 247.345 73.62813 248.04813Q74.12813 248.75125 74.84688 248.75125Q75.58125 248.75125 76.06563 248.04813Q76.56563 247.345 76.56563 245.23563Q76.56563 243.11063 76.06563 242.42313Q75.58125 241.72 74.83125 241.72Q74.1125 241.72 73.675 242.32938Q73.12813 243.11063 73.12813 245.23563ZM79.05 245.23563Q79.05 243.70438 79.3625 242.7825Q79.675 241.845 80.28438 241.345Q80.90938 240.845 81.84688 240.845Q82.53438 240.845 83.05 241.12625Q83.58125 241.4075 83.925 241.93875Q84.26875 242.45438 84.45625 243.20438Q84.64375 243.95438 84.64375 245.23563Q84.64375 246.75125 84.33125 247.67313Q84.03438 248.595 83.40938 249.11063Q82.8 249.61063 81.84688 249.61063Q80.6125 249.61063 79.89375 248.72Q79.05 247.6575 79.05 245.23563ZM80.12813 245.23563Q80.12813 247.345 80.62813 248.04813Q81.12813 248.75125 81.84688 248.75125Q82.58125 248.75125 83.06563 248.04813Q83.56563 247.345 83.56563 245.23563Q83.56563 243.11063 83.06563 242.42313Q82.58125 241.72 81.83125 241.72Q81.1125 241.72 80.675 242.32938Q80.12813 243.11063 80.12813 245.23563Z" fill-rule="nonzero"/><path fill="#000000" d="M58.05 192.24L59.159374 192.14626Q59.284374 192.95876 59.721874 193.365Q60.175 193.77126 60.815624 193.77126Q61.565624 193.77126 62.096874 193.19313Q62.628124 192.615 62.628124 191.6775Q62.628124 190.77126 62.1125 190.25563Q61.6125 189.72438 60.784374 189.72438Q60.284374 189.72438 59.8625 189.95876Q59.45625 190.19313 59.221874 190.5525L58.2375 190.4275L59.065624 186.02126L63.346874 186.02126L63.346874 187.02126L59.909374 187.02126L59.45625 189.33376Q60.221874 188.78688 61.065624 188.78688Q62.190624 188.78688 62.95625 189.56813Q63.7375 190.34938 63.7375 191.58376Q63.7375 192.74 63.065624 193.59938Q62.2375 194.63063 60.815624 194.63063Q59.64375 194.63063 58.89375 193.97438Q58.159374 193.31813 58.05 192.24ZM65.05 190.25563Q65.05 188.72438 65.3625 187.8025Q65.675 186.865 66.28438 186.365Q66.90938 185.865 67.84688 185.865Q68.53438 185.865 69.05 186.14626Q69.58125 186.4275 69.925 186.95876Q70.26875 187.47438 70.45625 188.22438Q70.64375 188.97438 70.64375 190.25563Q70.64375 191.77126 70.33125 192.69313Q70.03438 193.615 69.40938 194.13063Q68.8 194.63063 67.84688 194.63063Q66.6125 194.63063 65.89375 193.74Q65.05 192.6775 65.05 190.25563ZM66.12813 190.25563Q66.12813 192.365 66.62813 193.06813Q67.12813 193.77126 67.84688 193.77126Q68.58125 193.77126 69.06563 193.06813Q69.56563 192.365 69.56563 190.25563Q69.56563 188.13063 69.06563 187.44313Q68.58125 186.74 67.83125 186.74Q67.1125 186.74 66.675 187.34938Q66.12813 188.13063 66.12813 190.25563ZM72.05 190.25563Q72.05 188.72438 72.3625 187.8025Q72.675 186.865 73.28438 186.365Q73.90938 185.865 74.84688 185.865Q75.53438 185.865 76.05 186.14626Q76.58125 186.4275 76.925 186.95876Q77.26875 187.47438 77.45625 188.22438Q77.64375 188.97438 77.64375 190.25563Q77.64375 191.77126 77.33125 192.69313Q77.03438 193.615 76.40938 194.13063Q75.8 194.63063 74.84688 194.63063Q73.6125 194.63063 72.89375 193.74Q72.05 192.6775 72.05 190.25563ZM73.12813 190.25563Q73.12813 192.365 73.62813 193.06813Q74.12813 193.77126 74.84688 193.77126Q75.58125 193.77126 76.06563 193.06813Q76.56563 192.365 76.56563 190.25563Q76.56563 188.13063 76.06563 187.44313Q75.58125 186.74 74.83125 186.74Q74.1125 186.74 73.675 187.34938Q73.12813 188.13063 73.12813 190.25563ZM79.05 190.25563Q79.05 188.72438 79.3625 187.8025Q79.675 186.865 80.28438 186.365Q80.90938 185.865 81.84688 185.865Q82.53438 185.865 83.05 186.14626Q83.58125 186.4275 83.925 186.95876Q84.26875 187.47438 84.45625 188.22438Q84.64375 188.97438 84.64375 190.25563Q84.64375 191.77126 84.33125 192.69313Q84.03438 193.615 83.40938 194.13063Q82.8 194.63063 81.84688 194.63063Q80.6125 194.63063 79.89375 193.74Q79.05 192.6775 79.05 190.25563ZM80.12813 190.25563Q80.12813 192.365 80.62813 193.06813Q81.12813 193.77126 81.84688 193.77126Q82.58125 193.77126 83.06563 193.06813Q83.56563 192.365 83.56563 190.25563Q83.56563 188.13063 83.06563 187.44313Q82.58125 186.74 81.83125 186.74Q81.1125 186.74 80.675 187.34938Q80.12813 188.13063 80.12813 190.25563Z" fill-rule="nonzero"/><path fill="#000000" d="M58.1125 132.04124L58.1125 131.02562L63.675 131.02562L63.675 131.85374Q62.8625 132.72874 62.05 134.18187Q61.253124 135.61937 60.815624 137.15062Q60.4875 138.22874 60.409374 139.51L59.315624 139.51Q59.33125 138.49437 59.70625 137.05687Q60.096874 135.61937 60.8 134.29124Q61.51875 132.96312 62.33125 132.04124L58.1125 132.04124ZM65.05 137.26L66.15938 137.16624Q66.28438 137.97874 66.72188 138.385Q67.175 138.79124 67.81563 138.79124Q68.56563 138.79124 69.09688 138.21312Q69.62813 137.635 69.62813 136.6975Q69.62813 135.79124 69.1125 135.27562Q68.6125 134.74437 67.78438 134.74437Q67.28438 134.74437 66.8625 134.97874Q66.45625 135.21312 66.22188 135.5725L65.2375 135.4475L66.06563 131.04124L70.34688 131.04124L70.34688 132.04124L66.90938 132.04124L66.45625 134.35374Q67.22188 133.80687 68.06563 133.80687Q69.19063 133.80687 69.95625 134.58812Q70.7375 135.36937 70.7375 136.60374Q70.7375 137.76 70.06563 138.61937Q69.2375 139.65062 67.81563 139.65062Q66.64375 139.65062 65.89375 138.99437Q65.15938 138.33812 65.05 137.26ZM72.05 135.27562Q72.05 133.74437 72.3625 132.8225Q72.675 131.885 73.28438 131.385Q73.90938 130.885 74.84688 130.885Q75.53438 130.885 76.05 131.16624Q76.58125 131.4475 76.925 131.97874Q77.26875 132.49437 77.45625 133.24437Q77.64375 133.99437 77.64375 135.27562Q77.64375 136.79124 77.33125 137.71312Q77.03438 138.635 76.40938 139.15062Q75.8 139.65062 74.84688 139.65062Q73.6125 139.65062 72.89375 138.76Q72.05 137.6975 72.05 135.27562ZM73.12813 135.27562Q73.12813 137.385 73.62813 138.08812Q74.12813 138.79124 74.84688 138.79124Q75.58125 138.79124 76.06563 138.08812Q76.56563 137.385 76.56563 135.27562Q76.56563 133.15062 76.06563 132.46312Q75.58125 131.76 74.83125 131.76Q74.1125 131.76 73.675 132.36937Q73.12813 133.15062 73.12813 135.27562ZM79.05 135.27562Q79.05 133.74437 79.3625 132.8225Q79.675 131.885 80.28438 131.385Q80.90938 130.885 81.84688 130.885Q82.53438 130.885 83.05 131.16624Q83.58125 131.4475 83.925 131.97874Q84.26875 132.49437 84.45625 133.24437Q84.64375 133.99437 84.64375 135.27562Q84.64375 136.79124 84.33125 137.71312Q84.03438 138.635 83.40938 139.15062Q82.8 139.65062 81.84688 139.65062Q80.6125 139.65062 79.89375 138.76Q79.05 137.6975 79.05 135.27562ZM80.12813 135.27562Q80.12813 137.385 80.62813 138.08812Q81.12813 138.79124 81.84688 138.79124Q82.58125 138.79124 83.06563 138.08812Q83.56563 137.385 83.56563 135.27562Q83.56563 133.15062 83.06563 132.46312Q82.58125 131.76 81.83125 131.76Q81.1125 131.76 80.675 132.36937Q80.12813 133.15062 80.12813 135.27562Z" fill-rule="nonzero"/><path fill="#000000" d="M55.01875 84.53L53.971874 84.53L53.971874 77.81125Q53.58125 78.17062 52.95625 78.54562Q52.346874 78.905 51.8625 79.07687L51.8625 78.06125Q52.7375 77.63937 53.39375 77.06125Q54.065624 76.4675 54.346874 75.905L55.01875 75.905L55.01875 84.53ZM58.05 80.29562Q58.05 78.76437 58.3625 77.8425Q58.675 76.905 59.284374 76.405Q59.909374 75.905 60.846874 75.905Q61.534374 75.905 62.05 76.18625Q62.58125 76.4675 62.925 76.99875Q63.26875 77.51437 63.45625 78.26437Q63.64375 79.01437 63.64375 80.29562Q63.64375 81.81125 63.33125 82.73312Q63.034374 83.655 62.409374 84.17062Q61.8 84.67062 60.846874 84.67062Q59.6125 84.67062 58.89375 83.78Q58.05 82.7175 58.05 80.29562ZM59.128124 80.29562Q59.128124 82.405 59.628124 83.10812Q60.128124 83.81125 60.846874 83.81125Q61.58125 83.81125 62.065624 83.10812Q62.565624 82.405 62.565624 80.29562Q62.565624 78.17062 62.065624 77.48312Q61.58125 76.78 60.83125 76.78Q60.1125 76.78 59.675 77.38937Q59.128124 78.17062 59.128124 80.29562ZM65.05 80.29562Q65.05 78.76437 65.3625 77.8425Q65.675 76.905 66.28438 76.405Q66.90938 75.905 67.84688 75.905Q68.53438 75.905 69.05 76.18625Q69.58125 76.4675 69.925 76.99875Q70.26875 77.51437 70.45625 78.26437Q70.64375 79.01437 70.64375 80.29562Q70.64375 81.81125 70.33125 82.73312Q70.03438 83.655 69.40938 84.17062Q68.8 84.67062 67.84688 84.67062Q66.6125 84.67062 65.89375 83.78Q65.05 82.7175 65.05 80.29562ZM66.12813 80.29562Q66.12813 82.405 66.62813 83.10812Q67.12813 83.81125 67.84688 83.81125Q68.58125 83.81125 69.06563 83.10812Q69.56563 82.405 69.56563 80.29562Q69.56563 78.17062 69.06563 77.48312Q68.58125 76.78 67.83125 76.78Q67.1125 76.78 66.675 77.38937Q66.12813 78.17062 66.12813 80.29562ZM72.05 80.29562Q72.05 78.76437 72.3625 77.8425Q72.675 76.905 73.28438 76.405Q73.90938 75.905 74.84688 75.905Q75.53438 75.905 76.05 76.18625Q76.58125 76.4675 76.925 76.99875Q77.26875 77.51437 77.45625 78.26437Q77.64375 79.01437 77.64375 80.29562Q77.64375 81.81125 77.33125 82.73312Q77.03438 83.655 76.40938 84.17062Q75.8 84.67062 74.84688 84.67062Q73.6125 84.67062 72.89375 83.78Q72.05 82.7175 72.05 80.29562ZM73.12813 80.29562Q73.12813 82.405 73.62813 83.10812Q74.12813 83.81125 74.84688 83.81125Q75.58125 83.81125 76.06563 83.10812Q76.56563 82.405 76.56563 80.29562Q76.56563 78.17062 76.06563 77.48312Q75.58125 76.78 74.83125 76.78Q74.1125 76.78 73.675 77.38937Q73.12813 78.17062 73.12813 80.29562ZM79.05 80.29562Q79.05 78.76437 79.3625 77.8425Q79.675 76.905 80.28438 76.405Q80.90938 75.905 81.84688 75.905Q82.53438 75.905 83.05 76.18625Q83.58125 76.4675 83.925 76.99875Q84.26875 77.51437 84.45625 78.26437Q84.64375 79.01437 84.64375 80.29562Q84.64375 81.81125 84.33125 82.73312Q84.03438 83.655 83.40938 84.17062Q82.8 84.67062 81.84688 84.67062Q80.6125 84.67062 79.89375 83.78Q79.05 82.7175 79.05 80.29562ZM80.12813 80.29562Q80.12813 82.405 80.62813 83.10812Q81.12813 83.81125 81.84688 83.81125Q82.58125 83.81125 83.06563 83.10812Q83.56563 82.405 83.56563 80.29562Q83.56563 78.17062 83.06563 77.48312Q82.58125 76.78 81.83125 76.78Q81.1125 76.78 80.675 77.38937Q80.12813 78.17062 80.12813 80.29562Z" fill-rule="nonzero"/><path fill="#000000" d="M55.01875 29.55L53.971874 29.55L53.971874 22.83125Q53.58125 23.190624 52.95625 23.565624Q52.346874 23.925 51.8625 24.096874L51.8625 23.08125Q52.7375 22.659374 53.39375 22.08125Q54.065624 21.4875 54.346874 20.925L55.01875 20.925L55.01875 29.55ZM63.596874 28.534374L63.596874 29.55L57.909374 29.55Q57.909374 29.175 58.034374 28.815624Q58.253124 28.2375 58.721874 27.675Q59.20625 27.1125 60.1125 26.378124Q61.51875 25.221874 62.003124 24.55Q62.503124 23.878124 62.503124 23.284374Q62.503124 22.659374 62.05 22.2375Q61.596874 21.8 60.878124 21.8Q60.1125 21.8 59.659374 22.253124Q59.20625 22.70625 59.190624 23.51875L58.1125 23.409374Q58.221874 22.190624 58.940624 21.565624Q59.675 20.925 60.909374 20.925Q62.14375 20.925 62.8625 21.6125Q63.58125 22.3 63.58125 23.315624Q63.58125 23.83125 63.3625 24.33125Q63.159374 24.815624 62.659374 25.378124Q62.175 25.925 61.05 26.878124Q60.096874 27.675 59.815624 27.971874Q59.55 28.253124 59.378124 28.534374L63.596874 28.534374ZM65.05 27.3L66.15938 27.20625Q66.28438 28.01875 66.72188 28.425Q67.175 28.83125 67.81563 28.83125Q68.56563 28.83125 69.09688 28.253124Q69.62813 27.675 69.62813 26.7375Q69.62813 25.83125 69.1125 25.315624Q68.6125 24.784374 67.78438 24.784374Q67.28438 24.784374 66.8625 25.01875Q66.45625 25.253124 66.22188 25.6125L65.2375 25.4875L66.06563 21.08125L70.34688 21.08125L70.34688 22.08125L66.90938 22.08125L66.45625 24.39375Q67.22188 23.846874 68.06563 23.846874Q69.19063 23.846874 69.95625 24.628124Q70.7375 25.409374 70.7375 26.64375Q70.7375 27.8 70.06563 28.659374Q69.2375 29.690624 67.81563 29.690624Q66.64375 29.690624 65.89375 29.034374Q65.15938 28.378124 65.05 27.3ZM72.05 25.315624Q72.05 23.784374 72.3625 22.8625Q72.675 21.925 73.28438 21.425Q73.90938 20.925 74.84688 20.925Q75.53438 20.925 76.05 21.20625Q76.58125 21.4875 76.925 22.01875Q77.26875 22.534374 77.45625 23.284374Q77.64375 24.034374 77.64375 25.315624Q77.64375 26.83125 77.33125 27.753124Q77.03438 28.675 76.40938 29.190624Q75.8 29.690624 74.84688 29.690624Q73.6125 29.690624 72.89375 28.8Q72.05 27.7375 72.05 25.315624ZM73.12813 25.315624Q73.12813 27.425 73.62813 28.128124Q74.12813 28.83125 74.84688 28.83125Q75.58125 28.83125 76.06563 28.128124Q76.56563 27.425 76.56563 25.315624Q76.56563 23.190624 76.06563 22.503124Q75.58125 21.8 74.83125 21.8Q74.1125 21.8 73.675 22.409374Q73.12813 23.190624 73.12813 25.315624ZM79.05 25.315624Q79.05 23.784374 79.3625 22.8625Q79.675 21.925 80.28438 21.425Q80.90938 20.925 81.84688 20.925Q82.53438 20.925 83.05 21.20625Q83.58125 21.4875 83.925 22.01875Q84.26875 22.534374 84.45625 23.284374Q84.64375 24.034374 84.64375 25.315624Q84.64375 26.83125 84.33125 27.753124Q84.03438 28.675 83.40938 29.190624Q82.8 29.690624 81.84688 29.690624Q80.6125 29.690624 79.89375 28.8Q79.05 27.7375 79.05 25.315624ZM80.12813 25.315624Q80.12813 27.425 80.62813 28.128124Q81.12813 28.83125 81.84688 28.83125Q82.58125 28.83125 83.06563 28.128124Q83.56563 27.425 83.56563 25.315624Q83.56563 23.190624 83.06563 22.503124Q82.58125 21.8 81.83125 21.8Q81.1125 21.8 80.675 22.409374Q80.12813 23.190624 80.12813 25.315624Z" fill-rule="nonzero"/><path fill="#000000" d="M81.89375 315.0125L82.925 314.8719Q82.95625 315.85626 83.28438 316.21564Q83.6125 316.575 84.20625 316.575Q84.62813 316.575 84.94063 316.3875Q85.25313 316.1844 85.3625 315.85626Q85.4875 315.5125 85.4875 314.77814L85.4875 308.85626L86.6125 308.85626L86.6125 314.71564Q86.6125 315.79376 86.34688 316.3875Q86.09688 316.98126 85.53438 317.29376Q84.97188 317.59064 84.20625 317.59064Q83.08125 317.59064 82.47188 316.95Q81.87813 316.29376 81.89375 315.0125ZM92.40938 316.6844Q91.81563 317.1844 91.26875 317.3875Q90.7375 317.59064 90.1125 317.59064Q89.08125 317.59064 88.53438 317.09064Q87.9875 316.59064 87.9875 315.8094Q87.9875 315.35626 88.19063 314.98126Q88.39375 314.59064 88.7375 314.3719Q89.08125 314.1375 89.50313 314.02814Q89.8 313.9344 90.44063 313.85626Q91.70625 313.71564 92.31563 313.4969Q92.31563 313.27814 92.31563 313.23126Q92.31563 312.575 92.01875 312.3094Q91.6125 311.96564 90.81563 311.96564Q90.08125 311.96564 89.72188 312.23126Q89.3625 312.48126 89.19063 313.1375L88.15938 312.9969Q88.3 312.34064 88.62813 311.9344Q88.95625 311.52814 89.56563 311.3094Q90.175 311.09064 90.97188 311.09064Q91.76875 311.09064 92.26875 311.27814Q92.76875 311.46564 93.00313 311.7469Q93.2375 312.02814 93.33125 312.46564Q93.37813 312.73126 93.37813 313.4344L93.37813 314.84064Q93.37813 316.3094 93.44063 316.7Q93.51875 317.09064 93.72188 317.45L92.6125 317.45Q92.45625 317.1219 92.40938 316.6844ZM92.31563 314.325Q91.7375 314.5594 90.59688 314.73126Q89.94063 314.825 89.675 314.95Q89.40938 315.0594 89.25313 315.27814Q89.1125 315.4969 89.1125 315.77814Q89.1125 316.2 89.425 316.48126Q89.75313 316.7625 90.3625 316.7625Q90.97188 316.7625 91.44063 316.4969Q91.925 316.23126 92.14375 315.7625Q92.31563 315.40314 92.31563 314.71564L92.31563 314.325ZM95.34688 317.45L95.34688 311.23126L96.28438 311.23126L96.28438 312.10626Q96.97188 311.09064 98.26875 311.09064Q98.83125 311.09064 99.3 311.29376Q99.78438 311.4969 100.01875 311.825Q100.25313 312.15314 100.34688 312.59064Q100.39375 312.8875 100.39375 313.6219L100.39375 317.45L99.34688 317.45L99.34688 313.66876Q99.34688 313.0125 99.22188 312.7Q99.09688 312.3875 98.78438 312.2Q98.47188 311.9969 98.05 311.9969Q97.37813 311.9969 96.87813 312.4344Q96.39375 312.85626 96.39375 314.04376L96.39375 317.45L95.34688 317.45Z" fill-rule="nonzero"/><path fill="#000000" d="M127.57074 317.45L127.57074 308.85626L133.36761 308.85626L133.36761 309.8719L128.71136 309.8719L128.71136 312.52814L132.74261 312.52814L132.74261 313.54376L128.71136 313.54376L128.71136 317.45L127.57074 317.45ZM138.63324 315.45L139.72699 315.575Q139.47699 316.52814 138.77386 317.0594Q138.07074 317.59064 136.99261 317.59064Q135.63324 317.59064 134.82074 316.7469Q134.02386 315.90314 134.02386 314.3875Q134.02386 312.825 134.83636 311.96564Q135.64886 311.09064 136.93011 311.09064Q138.18011 311.09064 138.96136 311.9344Q139.75824 312.77814 139.75824 314.325Q139.75824 314.41876 139.75824 314.60626L135.11761 314.60626Q135.18011 315.6375 135.69574 316.1844Q136.21136 316.71564 136.99261 316.71564Q137.57074 316.71564 137.97699 316.41876Q138.39886 316.10626 138.63324 315.45ZM135.18011 313.7469L138.64886 313.7469Q138.58636 312.95 138.25824 312.5594Q137.74261 311.95 136.94574 311.95Q136.21136 311.95 135.71136 312.4344Q135.22699 312.91876 135.18011 313.7469ZM143.10199 317.45L140.74261 311.23126L141.85199 311.23126L143.19574 314.95Q143.39886 315.5594 143.58636 316.2Q143.72699 315.71564 143.97699 315.02814L145.36761 311.23126L146.44574 311.23126L144.08636 317.45L143.10199 317.45Z" fill-rule="nonzero"/><path fill="#000000" d="M171.51335 317.45L171.51335 308.85626L173.2321 308.85626L175.26335 314.9344Q175.5446 315.79376 175.6696 316.21564Q175.81023 315.7469 176.12273 314.84064L178.18523 308.85626L179.71648 308.85626L179.71648 317.45L178.62273 317.45L178.62273 310.2625L176.12273 317.45L175.09148 317.45L172.6071 310.1375L172.6071 317.45L171.51335 317.45ZM184.4821 316.6844Q183.88835 317.1844 183.34148 317.3875Q182.81023 317.59064 182.18523 317.59064Q181.15398 317.59064 180.6071 317.09064Q180.06023 316.59064 180.06023 315.8094Q180.06023 315.35626 180.26335 314.98126Q180.46648 314.59064 180.81023 314.3719Q181.15398 314.1375 181.57585 314.02814Q181.87273 313.9344 182.51335 313.85626Q183.77898 313.71564 184.38835 313.4969Q184.38835 313.27814 184.38835 313.23126Q184.38835 312.575 184.09148 312.3094Q183.68523 311.96564 182.88835 311.96564Q182.15398 311.96564 181.7946 312.23126Q181.43523 312.48126 181.26335 313.1375L180.2321 312.9969Q180.37273 312.34064 180.70085 311.9344Q181.02898 311.52814 181.63835 311.3094Q182.24773 311.09064 183.0446 311.09064Q183.84148 311.09064 184.34148 311.27814Q184.84148 311.46564 185.07585 311.7469Q185.31023 312.02814 185.40398 312.46564Q185.45085 312.73126 185.45085 313.4344L185.45085 314.84064Q185.45085 316.3094 185.51335 316.7Q185.59148 317.09064 185.7946 317.45L184.68523 317.45Q184.52898 317.1219 184.4821 316.6844ZM184.38835 314.325Q183.81023 314.5594 182.6696 314.73126Q182.01335 314.825 181.74773 314.95Q181.4821 315.0594 181.32585 315.27814Q181.18523 315.4969 181.18523 315.77814Q181.18523 316.2 181.49773 316.48126Q181.82585 316.7625 182.43523 316.7625Q183.0446 316.7625 183.51335 316.4969Q183.99773 316.23126 184.21648 315.7625Q184.38835 315.40314 184.38835 314.71564L184.38835 314.325ZM187.40398 317.45L187.40398 311.23126L188.3571 311.23126L188.3571 312.16876Q188.71648 311.5125 189.01335 311.3094Q189.32585 311.09064 189.70085 311.09064Q190.2321 311.09064 190.77898 311.41876L190.4196 312.40314Q190.02898 312.16876 189.65398 312.16876Q189.2946 312.16876 189.01335 312.3875Q188.74773 312.59064 188.63835 312.96564Q188.45085 313.52814 188.45085 314.1844L188.45085 317.45L187.40398 317.45Z" fill-rule="nonzero"/><path fill="#000000" d="M216.14346 317.45L219.44034 308.85626L220.65909 308.85626L224.17471 317.45L222.89346 317.45L221.87784 314.84064L218.29971 314.84064L217.34659 317.45L216.14346 317.45ZM218.62784 313.91876L221.53409 313.91876L220.64346 311.54376Q220.22159 310.46564 220.03409 309.7625Q219.86221 310.59064 219.56534 311.40314L218.62784 313.91876ZM224.92471 317.45L223.94034 317.45L223.94034 308.85626L225.00284 308.85626L225.00284 311.91876Q225.67471 311.09064 226.70596 311.09064Q227.28409 311.09064 227.78409 311.325Q228.29971 311.54376 228.62784 311.96564Q228.97159 312.3875 229.15909 312.98126Q229.34659 313.575 229.34659 314.2469Q229.34659 315.84064 228.54971 316.71564Q227.75284 317.59064 226.65909 317.59064Q225.54971 317.59064 224.92471 316.66876L224.92471 317.45ZM224.90909 314.29376Q224.90909 315.40314 225.22159 315.90314Q225.72159 316.71564 226.56534 316.71564Q227.25284 316.71564 227.75284 316.1219Q228.26846 315.52814 228.26846 314.325Q228.26846 313.10626 227.78409 312.52814Q227.29971 311.95 226.61221 311.95Q225.92471 311.95 225.40909 312.5594Q224.90909 313.15314 224.90909 314.29376ZM230.94034 317.45L230.94034 311.23126L231.89346 311.23126L231.89346 312.16876Q232.25284 311.5125 232.54971 311.3094Q232.86221 311.09064 233.23721 311.09064Q233.76846 311.09064 234.31534 311.41876L233.95596 312.40314Q233.56534 312.16876 233.19034 312.16876Q232.83096 312.16876 232.54971 312.3875Q232.28409 312.59064 232.17471 312.96564Q231.98721 313.52814 231.98721 314.1844L231.98721 317.45L230.94034 317.45Z" fill-rule="nonzero"/><path fill="#000000" d="M261.0861 317.45L261.0861 308.85626L262.80484 308.85626L264.8361 314.9344Q265.11734 315.79376 265.24234 316.21564Q265.38297 315.7469 265.69547 314.84064L267.75797 308.85626L269.2892 308.85626L269.2892 317.45L268.19547 317.45L268.19547 310.2625L265.69547 317.45L264.6642 317.45L262.17984 310.1375L262.17984 317.45L261.0861 317.45ZM274.05484 316.6844Q273.4611 317.1844 272.9142 317.3875Q272.38297 317.59064 271.75797 317.59064Q270.7267 317.59064 270.17984 317.09064Q269.63297 316.59064 269.63297 315.8094Q269.63297 315.35626 269.8361 314.98126Q270.0392 314.59064 270.38297 314.3719Q270.7267 314.1375 271.1486 314.02814Q271.44547 313.9344 272.0861 313.85626Q273.3517 313.71564 273.9611 313.4969Q273.9611 313.27814 273.9611 313.23126Q273.9611 312.575 273.6642 312.3094Q273.25797 311.96564 272.4611 311.96564Q271.7267 311.96564 271.36734 312.23126Q271.00797 312.48126 270.8361 313.1375L269.80484 312.9969Q269.94547 312.34064 270.2736 311.9344Q270.6017 311.52814 271.2111 311.3094Q271.82047 311.09064 272.61734 311.09064Q273.4142 311.09064 273.9142 311.27814Q274.4142 311.46564 274.6486 311.7469Q274.88297 312.02814 274.9767 312.46564Q275.0236 312.73126 275.0236 313.4344L275.0236 314.84064Q275.0236 316.3094 275.0861 316.7Q275.1642 317.09064 275.36734 317.45L274.25797 317.45Q274.1017 317.1219 274.05484 316.6844ZM273.9611 314.325Q273.38297 314.5594 272.24234 314.73126Q271.5861 314.825 271.32047 314.95Q271.05484 315.0594 270.8986 315.27814Q270.75797 315.4969 270.75797 315.77814Q270.75797 316.2 271.07047 316.48126Q271.3986 316.7625 272.00797 316.7625Q272.61734 316.7625 273.0861 316.4969Q273.57047 316.23126 273.7892 315.7625Q273.9611 315.40314 273.9611 314.71564L273.9611 314.325ZM276.99234 310.075L276.99234 308.85626L278.05484 308.85626L278.05484 310.075L276.99234 310.075ZM276.99234 317.45L276.99234 311.23126L278.05484 311.23126L278.05484 317.45L276.99234 317.45Z" fill-rule="nonzero"/><path fill="#000000" d="M304.57556 315.0125L305.6068 314.8719Q305.63806 315.85626 305.9662 316.21564Q306.2943 316.575 306.88806 316.575Q307.30994 316.575 307.62244 316.3875Q307.93494 316.1844 308.0443 315.85626Q308.1693 315.5125 308.1693 314.77814L308.1693 308.85626L309.2943 308.85626L309.2943 314.71564Q309.2943 315.79376 309.0287 316.3875Q308.7787 316.98126 308.2162 317.29376Q307.6537 317.59064 306.88806 317.59064Q305.76306 317.59064 305.1537 316.95Q304.55994 316.29376 304.57556 315.0125ZM315.1068 317.45L315.1068 316.52814Q314.37244 317.59064 313.12244 317.59064Q312.57556 317.59064 312.0912 317.3875Q311.62244 317.16876 311.38806 316.85626Q311.1537 316.52814 311.05994 316.0594Q310.99744 315.7625 310.99744 315.075L310.99744 311.23126L312.05994 311.23126L312.05994 314.6844Q312.05994 315.4969 312.12244 315.79376Q312.2162 316.2 312.5287 316.45Q312.8568 316.6844 313.3412 316.6844Q313.80994 316.6844 314.2162 316.45Q314.63806 316.2 314.80994 315.77814Q314.99744 315.35626 314.99744 314.5594L314.99744 311.23126L316.0443 311.23126L316.0443 317.45L315.1068 317.45ZM318.0287 317.45L318.0287 311.23126L318.9662 311.23126L318.9662 312.10626Q319.6537 311.09064 320.95056 311.09064Q321.51306 311.09064 321.9818 311.29376Q322.4662 311.4969 322.70056 311.825Q322.93494 312.15314 323.0287 312.59064Q323.07556 312.8875 323.07556 313.6219L323.07556 317.45L322.0287 317.45L322.0287 313.66876Q322.0287 313.0125 321.9037 312.7Q321.7787 312.3875 321.4662 312.2Q321.1537 311.9969 320.7318 311.9969Q320.05994 311.9969 319.55994 312.4344Q319.07556 312.85626 319.07556 314.04376L319.07556 317.45L318.0287 317.45Z" fill-rule="nonzero"/><path fill="#000000" d="M351.11194 315.0125L352.1432 314.8719Q352.17444 315.85626 352.50256 316.21564Q352.8307 316.575 353.42444 316.575Q353.8463 316.575 354.1588 316.3875Q354.4713 316.1844 354.5807 315.85626Q354.7057 315.5125 354.7057 314.77814L354.7057 308.85626L355.8307 308.85626L355.8307 314.71564Q355.8307 315.79376 355.56506 316.3875Q355.31506 316.98126 354.75256 317.29376Q354.19006 317.59064 353.42444 317.59064Q352.29944 317.59064 351.69006 316.95Q351.0963 316.29376 351.11194 315.0125ZM361.6432 317.45L361.6432 316.52814Q360.9088 317.59064 359.6588 317.59064Q359.11194 317.59064 358.62756 317.3875Q358.1588 317.16876 357.92444 316.85626Q357.69006 316.52814 357.5963 316.0594Q357.5338 315.7625 357.5338 315.075L357.5338 311.23126L358.5963 311.23126L358.5963 314.6844Q358.5963 315.4969 358.6588 315.79376Q358.75256 316.2 359.06506 316.45Q359.3932 316.6844 359.87756 316.6844Q360.3463 316.6844 360.75256 316.45Q361.17444 316.2 361.3463 315.77814Q361.5338 315.35626 361.5338 314.5594L361.5338 311.23126L362.5807 311.23126L362.5807 317.45L361.6432 317.45ZM364.5338 317.45L364.5338 308.85626L365.5963 308.85626L365.5963 317.45L364.5338 317.45Z" fill-rule="nonzero"/><path fill="#000000" d="M392.7889 317.45L396.0858 308.85626L397.30453 308.85626L400.82016 317.45L399.5389 317.45L398.5233 314.84064L394.94516 314.84064L393.99203 317.45L392.7889 317.45ZM395.2733 313.91876L398.17953 313.91876L397.2889 311.54376Q396.86703 310.46564 396.67953 309.7625Q396.50766 310.59064 396.2108 311.40314L395.2733 313.91876ZM400.3983 317.96564L401.42953 318.1219Q401.49203 318.59064 401.7889 318.8094Q402.17953 319.10626 402.8514 319.10626Q403.5858 319.10626 403.9764 318.8094Q404.38266 318.5125 404.5233 317.9969Q404.61703 317.66876 404.6014 316.6375Q403.9139 317.45 402.88266 317.45Q401.6014 317.45 400.8983 316.52814Q400.19516 315.59064 400.19516 314.3094Q400.19516 313.41876 400.50766 312.66876Q400.8358 311.90314 401.44516 311.4969Q402.05453 311.09064 402.88266 311.09064Q403.99203 311.09064 404.7108 311.98126L404.7108 311.23126L405.67953 311.23126L405.67953 316.60626Q405.67953 318.0594 405.38266 318.66876Q405.0858 319.27814 404.44516 319.6219Q403.80453 319.98126 402.86703 319.98126Q401.75766 319.98126 401.07016 319.48126Q400.38266 318.98126 400.3983 317.96564ZM401.2733 314.23126Q401.2733 315.45 401.75766 316.0125Q402.24203 316.575 402.9764 316.575Q403.7108 316.575 404.19516 316.0125Q404.69516 315.45 404.69516 314.2625Q404.69516 313.1219 404.17953 312.54376Q403.67953 311.96564 402.9608 311.96564Q402.25766 311.96564 401.75766 312.54376Q401.2733 313.10626 401.2733 314.23126ZM407.2108 314.34064Q407.2108 312.60626 408.1639 311.77814Q408.9608 311.09064 410.11703 311.09064Q411.3983 311.09064 412.2108 311.9344Q413.0389 312.7625 413.0389 314.2469Q413.0389 315.45 412.67953 316.1375Q412.32016 316.825 411.61703 317.21564Q410.92953 317.59064 410.11703 317.59064Q408.82016 317.59064 408.00766 316.7625Q407.2108 315.91876 407.2108 314.34064ZM408.2889 314.34064Q408.2889 315.52814 408.80453 316.1219Q409.3358 316.71564 410.11703 316.71564Q410.9139 316.71564 411.42953 316.1219Q411.94516 315.52814 411.94516 314.3094Q411.94516 313.15314 411.4139 312.5594Q410.8983 311.96564 410.11703 311.96564Q409.3358 311.96564 408.80453 312.5594Q408.2889 313.1375 408.2889 314.34064Z" fill-rule="nonzero"/><path fill="#000000" d="M439.3878 314.6844L440.4503 314.59064Q440.5284 315.2469 440.80966 315.65314Q441.0909 316.0594 441.66904 316.325Q442.2628 316.575 442.99716 316.575Q443.6378 316.575 444.1378 316.3875Q444.6378 316.1844 444.87216 315.85626Q445.12216 315.5125 445.12216 315.1219Q445.12216 314.71564 444.8878 314.41876Q444.6534 314.10626 444.12216 313.90314Q443.7628 313.7625 442.5753 313.48126Q441.4034 313.2 440.93466 312.95Q440.30966 312.6219 440.0128 312.15314Q439.7159 311.66876 439.7159 311.075Q439.7159 310.4344 440.0753 309.8719Q440.4503 309.29376 441.1534 309.0125Q441.87216 308.71564 442.73154 308.71564Q443.68466 308.71564 444.41904 309.02814Q445.1534 309.325 445.54404 309.9344Q445.93466 310.52814 445.9659 311.27814L444.87216 311.35626Q444.7784 310.54376 444.2628 310.1375Q443.7628 309.71564 442.7784 309.71564Q441.74716 309.71564 441.2784 310.09064Q440.80966 310.46564 440.80966 310.9969Q440.80966 311.46564 441.1378 311.7625Q441.4659 312.0594 442.8409 312.3719Q444.23154 312.6844 444.74716 312.91876Q445.49716 313.27814 445.85654 313.8094Q446.2159 314.325 446.2159 315.02814Q446.2159 315.71564 445.8253 316.325Q445.43466 316.91876 444.7003 317.2625Q443.9659 317.59064 443.04404 317.59064Q441.87216 317.59064 441.0753 317.2625Q440.29404 316.91876 439.8409 316.23126Q439.4034 315.54376 439.3878 314.6844ZM451.8878 315.45L452.98154 315.575Q452.73154 316.52814 452.0284 317.0594Q451.3253 317.59064 450.24716 317.59064Q448.8878 317.59064 448.0753 316.7469Q447.2784 315.90314 447.2784 314.3875Q447.2784 312.825 448.0909 311.96564Q448.9034 311.09064 450.18466 311.09064Q451.43466 311.09064 452.2159 311.9344Q453.0128 312.77814 453.0128 314.325Q453.0128 314.41876 453.0128 314.60626L448.37216 314.60626Q448.43466 315.6375 448.9503 316.1844Q449.4659 316.71564 450.24716 316.71564Q450.8253 316.71564 451.23154 316.41876Q451.6534 316.10626 451.8878 315.45ZM448.43466 313.7469L451.9034 313.7469Q451.8409 312.95 451.5128 312.5594Q450.99716 311.95 450.2003 311.95Q449.4659 311.95 448.9659 312.4344Q448.48154 312.91876 448.43466 313.7469ZM456.93466 316.5125L457.0909 317.4344Q456.6378 317.52814 456.29404 317.52814Q455.7159 317.52814 455.4034 317.35626Q455.0909 317.16876 454.9503 316.8719Q454.8253 316.575 454.8253 315.6219L454.8253 312.04376L454.05966 312.04376L454.05966 311.23126L454.8253 311.23126L454.8253 309.6844L455.87216 309.0594L455.87216 311.23126L456.93466 311.23126L456.93466 312.04376L455.87216 312.04376L455.87216 315.6844Q455.87216 316.1375 455.91904 316.2625Q455.98154 316.3875 456.10654 316.46564Q456.23154 316.54376 456.4659 316.54376Q456.6534 316.54376 456.93466 316.5125Z" fill-rule="nonzero"/><path fill="#000000" d="M483.45538 313.2625Q483.45538 311.1219 484.596 309.91876Q485.75226 308.7 487.56476 308.7Q488.76788 308.7 489.721 309.27814Q490.67413 309.84064 491.17413 310.85626Q491.67413 311.8719 491.67413 313.16876Q491.67413 314.46564 491.14288 315.4969Q490.61163 316.52814 489.64288 317.0594Q488.68976 317.59064 487.56476 317.59064Q486.346 317.59064 485.39288 317.0125Q484.43976 316.41876 483.93976 315.41876Q483.45538 314.40314 483.45538 313.2625ZM484.62726 313.27814Q484.62726 314.84064 485.45538 315.73126Q486.29913 316.6219 487.56476 316.6219Q488.846 316.6219 489.67413 315.73126Q490.50226 314.825 490.50226 313.15314Q490.50226 312.10626 490.14288 311.325Q489.79913 310.54376 489.11163 310.1219Q488.42413 309.6844 487.58038 309.6844Q486.37726 309.6844 485.50226 310.5125Q484.62726 311.34064 484.62726 313.27814ZM496.75226 317.45L496.75226 316.52814Q496.01788 317.59064 494.76788 317.59064Q494.221 317.59064 493.73663 317.3875Q493.26788 317.16876 493.0335 316.85626Q492.79913 316.52814 492.70538 316.0594Q492.64288 315.7625 492.64288 315.075L492.64288 311.23126L493.70538 311.23126L493.70538 314.6844Q493.70538 315.4969 493.76788 315.79376Q493.86163 316.2 494.17413 316.45Q494.50226 316.6844 494.98663 316.6844Q495.45538 316.6844 495.86163 316.45Q496.2835 316.2 496.45538 315.77814Q496.64288 315.35626 496.64288 314.5594L496.64288 311.23126L497.68976 311.23126L497.68976 317.45L496.75226 317.45ZM501.971 316.5125L502.12726 317.4344Q501.67413 317.52814 501.33038 317.52814Q500.75226 317.52814 500.43976 317.35626Q500.12726 317.16876 499.98663 316.8719Q499.86163 316.575 499.86163 315.6219L499.86163 312.04376L499.096 312.04376L499.096 311.23126L499.86163 311.23126L499.86163 309.6844L500.9085 309.0594L500.9085 311.23126L501.971 311.23126L501.971 312.04376L500.9085 312.04376L500.9085 315.6844Q500.9085 316.1375 500.95538 316.2625Q501.01788 316.3875 501.14288 316.46564Q501.26788 316.54376 501.50226 316.54376Q501.68976 316.54376 501.971 316.5125Z" fill-rule="nonzero"/><path fill="#000000" d="M527.3355 317.45L527.3355 308.85626L528.49176 308.85626L533.0074 315.60626L533.0074 308.85626L534.10114 308.85626L534.10114 317.45L532.92926 317.45L528.41364 310.7L528.41364 317.45L527.3355 317.45ZM535.8199 314.34064Q535.8199 312.60626 536.773 311.77814Q537.5699 311.09064 538.72614 311.09064Q540.0074 311.09064 540.8199 311.9344Q541.648 312.7625 541.648 314.2469Q541.648 315.45 541.28864 316.1375Q540.92926 316.825 540.22614 317.21564Q539.53864 317.59064 538.72614 317.59064Q537.42926 317.59064 536.61676 316.7625Q535.8199 315.91876 535.8199 314.34064ZM536.898 314.34064Q536.898 315.52814 537.41364 316.1219Q537.9449 316.71564 538.72614 316.71564Q539.523 316.71564 540.03864 316.1219Q540.55426 315.52814 540.55426 314.3094Q540.55426 313.15314 540.023 312.5594Q539.5074 311.96564 538.72614 311.96564Q537.9449 311.96564 537.41364 312.5594Q536.898 313.1375 536.898 314.34064ZM544.92926 317.45L542.5699 311.23126L543.67926 311.23126L545.023 314.95Q545.22614 315.5594 545.41364 316.2Q545.55426 315.71564 545.80426 315.02814L547.1949 311.23126L548.273 311.23126L545.91364 317.45L544.92926 317.45Z" fill-rule="nonzero"/><path fill="#000000" d="M571.8719 317.45L571.8719 308.85626L574.84064 308.85626Q575.84064 308.85626 576.3719 308.98126Q577.10626 309.15314 577.6219 309.59064Q578.3094 310.16876 578.6375 311.075Q578.98126 311.96564 578.98126 313.10626Q578.98126 314.09064 578.7469 314.84064Q578.52814 315.59064 578.16876 316.09064Q577.8094 316.59064 577.3719 316.8719Q576.95 317.15314 576.35626 317.3094Q575.7625 317.45 574.98126 317.45L571.8719 317.45ZM573.0125 316.4344L574.84064 316.4344Q575.7 316.4344 576.1844 316.27814Q576.66876 316.1219 576.95 315.825Q577.35626 315.4344 577.575 314.7469Q577.8094 314.0594 577.8094 313.09064Q577.8094 311.7469 577.35626 311.02814Q576.91876 310.29376 576.29376 310.04376Q575.825 309.8719 574.825 309.8719L573.0125 309.8719L573.0125 316.4344ZM584.9969 315.45L586.09064 315.575Q585.84064 316.52814 585.1375 317.0594Q584.4344 317.59064 583.35626 317.59064Q581.9969 317.59064 581.1844 316.7469Q580.3875 315.90314 580.3875 314.3875Q580.3875 312.825 581.2 311.96564Q582.0125 311.09064 583.29376 311.09064Q584.54376 311.09064 585.325 311.9344Q586.1219 312.77814 586.1219 314.325Q586.1219 314.41876 586.1219 314.60626L581.48126 314.60626Q581.54376 315.6375 582.0594 316.1844Q582.575 316.71564 583.35626 316.71564Q583.9344 316.71564 584.34064 316.41876Q584.7625 316.10626 584.9969 315.45ZM581.54376 313.7469L585.0125 313.7469Q584.95 312.95 584.6219 312.5594Q584.10626 311.95 583.3094 311.95Q582.575 311.95 582.075 312.4344Q581.59064 312.91876 581.54376 313.7469ZM587.1844 317.45L587.1844 316.59064L591.15314 312.04376Q590.46564 312.075 589.95 312.075L587.41876 312.075L587.41876 311.23126L592.5125 311.23126L592.5125 311.91876L589.1375 315.8719L588.48126 316.59064Q589.2 316.54376 589.8094 316.54376L592.7 316.54376L592.7 317.45L587.1844 317.45Z" fill-rule="nonzero"/></svg>